<svg width="512" height="512" xmlns="http://www.w3.org/2000/svg">

 <g>
  <title>background</title>
  <rect fill="none" id="canvas_background" height="602" width="802" y="-1" x="-1"/>
 </g>
 <g>
  <title>Layer 1</title>
  <g stroke="null" transform="rotate(-90 256.00000000000006,256) " id="svg_1">
   <g stroke="null" id="svg_2">
    <path stroke="null" id="svg_3" d="m256,0c-141.152,0 -256,114.848 -256,256c0,49.216 13.792,96.48 39.936,137.216l-38.784,96.832c-2.368,5.952 -0.992,12.736 3.552,17.28c3.04,3.04 7.136,4.672 11.296,4.672c2.016,0 4,-0.384 5.952,-1.152l96.832,-38.784c40.736,26.144 88,39.936 137.216,39.936c141.152,0 256,-114.848 256,-256s-114.848,-256 -256,-256zm0,480c-45.632,0 -89.312,-13.504 -126.272,-39.072c-2.688,-1.888 -5.888,-2.848 -9.088,-2.848c-2.016,0 -4.032,0.384 -5.952,1.152l-69.952,28.032l28.032,-69.952c1.984,-4.992 1.344,-10.656 -1.696,-15.04c-25.568,-36.96 -39.072,-80.64 -39.072,-126.272c0,-123.52 100.48,-224 224,-224s224,100.48 224,224s-100.48,224 -224,224z"/>
   </g>
  </g>
  <g id="svg_4"/>
  <g id="svg_5"/>
  <g id="svg_6"/>
  <g id="svg_7"/>
  <g id="svg_8"/>
  <g id="svg_9"/>
  <g id="svg_10"/>
  <g id="svg_11"/>
  <g id="svg_12"/>
  <g id="svg_13"/>
  <g id="svg_14"/>
  <g id="svg_15"/>
  <g id="svg_16"/>
  <g id="svg_17"/>
  <g id="svg_18"/>
 </g>
</svg>