<svg width="412.735" height="412.735" xmlns="http://www.w3.org/2000/svg">

 <g>
  <title>background</title>
  <rect fill="none" id="canvas_background" height="602" width="802" y="-1" x="-1"/>
 </g>
 <g>
  <title>Layer 1</title>
  <g stroke="null" id="svg_1">
   <g stroke="null" id="svg_2">
    <path stroke="null" id="svg_3" d="m295.27309,1.52356c0,0 0,0 0,0c-34.26316,-0.22008 -66.83556,17.86577 -88.90609,49.36558c-21.9322,-31.71511 -54.59516,-49.85239 -88.90609,-49.36558c-64.31981,0 -116.46091,62.66832 -116.46091,139.97421c0,132.47721 192.36929,261.82789 200.16831,266.82748c3.14668,2.52731 7.25069,2.52731 10.39837,0c7.79902,-4.99959 200.16831,-132.47602 200.16831,-266.82748c0,-77.30588 -52.1421,-139.97421 -116.46191,-139.97421zm-88.90609,381.80612c-30.15516,-21.24587 -184.57027,-134.35027 -184.57027,-241.83192c0,-63.50079 42.83044,-114.97984 95.66517,-114.97984c32.35446,-0.51072 62.63302,19.1037 80.06713,51.86538c3.53976,5.86675 10.36752,7.17405 15.24875,2.91842c0.93246,-0.81333 1.75247,-1.7977 2.42818,-2.91842c28.91421,-53.14757 88.20152,-68.06023 132.4212,-33.30828c27.07019,21.27458 43.36385,57.54793 43.31011,96.42155c0.001,108.73155 -154.4151,221.21159 -184.57027,241.83311z"/>
   </g>
  </g>
  <g id="svg_4"/>
  <g id="svg_5"/>
  <g id="svg_6"/>
  <g id="svg_7"/>
  <g id="svg_8"/>
  <g id="svg_9"/>
  <g id="svg_10"/>
  <g id="svg_11"/>
  <g id="svg_12"/>
  <g id="svg_13"/>
  <g id="svg_14"/>
  <g id="svg_15"/>
  <g id="svg_16"/>
  <g id="svg_17"/>
  <g id="svg_18"/>
 </g>
</svg>